<svg width="1280" height="720" xmlns="http://www.w3.org/2000/svg" xmlns:xlink="http://www.w3.org/1999/xlink" overflow="hidden"><defs><clipPath id="clip0"><path d="M0 0 1280 0 1280 720 0 720Z" fill-rule="evenodd" clip-rule="evenodd"/></clipPath></defs><g clip-path="url(#clip0)"><rect x="0" y="0" width="1280" height="720" fill="#FFFFFF"/><path d="M847.468-121.374C843.914-119.85 859.656-141.953 827.664-122.898 795.672-103.843 657.803-57.0951 655.518-7.04405 653.233 43.007 766.473 123.292 813.953 177.408 861.433 231.524 942.428 259.726 940.397 317.653 938.365 375.58 868.542 486.353 801.766 524.971 734.989 563.589 618.448 522.685 539.738 549.362 461.028 576.039 427.767 676.395 329.507 685.033 231.246 693.672 47.4205 580.104-49.8242 601.191-147.069 622.279-458.1 755.918-253.962 811.558-49.8242 867.199 903.073 1011.76 1175 935.035 1446.93 858.307 1360.86 521.922 1377.62 351.19 1394.37 180.457 1363.65-8.82259 1275.55-89.3617 1187.44-169.901 919.577-126.964 848.992-132.045 778.407-137.126 851.023-122.898 847.468-121.374Z" fill="#726EFF" fill-rule="evenodd" fill-opacity="0.34902"/><path d="M895.468-101.39C891.914-99.8672 907.656-121.951 875.664-102.913 843.672-83.8755 705.803-37.1699 703.518 12.8355 701.233 62.841 814.473 143.053 861.953 197.12 909.433 251.186 990.428 279.362 988.397 337.236 986.365 395.111 916.542 505.783 849.766 544.366 782.989 582.948 666.448 542.081 587.738 568.734 509.028 595.386 475.767 695.651 377.507 704.281 279.246 712.912 95.4205 599.448-1.82422 620.516-99.069 641.584-410.1 775.101-205.962 830.691-1.82422 886.281 951.073 1030.71 1223 954.055 1494.93 877.397 1408.86 541.32 1425.62 370.743 1442.37 200.166 1411.65 11.0586 1323.55-69.407 1235.44-149.873 967.577-106.975 896.992-112.051 826.407-117.128 899.023-102.913 895.468-101.39Z" fill="#212B38" fill-rule="evenodd"/><path d="M-126-34C-126-135.068-44.292-217 56.5-217 157.292-217 239-135.068 239-34 239 67.0681 157.292 149 56.5 149-44.292 149-126 67.0681-126-34Z" fill="#08C6AB" fill-rule="evenodd" fill-opacity="0.639216"/><path d="M-40-14C-40-71.9899 41.9319-119 143-119 244.068-119 326-71.9899 326-14 326 43.9899 244.068 91 143 91 41.9319 91-40 43.9899-40-14Z" fill="#37465B" fill-rule="evenodd"/></g></svg>