<svg width="1280" height="720" xmlns="http://www.w3.org/2000/svg" xmlns:xlink="http://www.w3.org/1999/xlink" overflow="hidden"><defs><clipPath id="clip0"><path d="M0 0 1280 0 1280 720 0 720Z" fill-rule="evenodd" clip-rule="evenodd"/></clipPath></defs><g clip-path="url(#clip0)"><rect x="0" y="0" width="1280" height="720" fill="#FFFFFF"/><path d="M917.237-155.027C912.922-155.027 908.353-164.417 889.822-148.936 871.291-133.455 817.221-105.284 806.052-62.1406 794.882-18.9969 801.736 61.4534 822.806 109.927 843.875 158.4 905.053 192.661 932.468 228.699 959.884 264.736 998.722 283.77 987.299 326.153 975.876 368.535 921.807 443.148 863.929 482.993 806.052 522.837 723.297 532.227 640.035 565.22 556.773 598.212 486.203 676.124 364.356 680.946 242.509 685.768-6.76924 566.489-91.0468 594.151-175.324 621.814-372.818 820.021-141.309 846.923 90.2007 873.824 1062.18 916.714 1298.01 755.559 1533.83 594.405 1337.36 30.7452 1273.64-120.004 1209.92-270.753 975.622-143.606 915.714-148.936 855.806-154.265 921.553-155.027 917.237-155.027Z" fill="#726EFF" fill-rule="evenodd" fill-opacity="0.34902"/><path d="M976.94-134.99C972.622-134.99 968.05-144.389 949.508-128.893 930.966-113.398 876.864-85.2012 865.688-42.017 854.512 1.16708 861.37 81.6928 882.452 130.211 903.534 178.73 964.748 213.023 992.18 249.095 1019.61 285.166 1058.47 304.218 1047.04 346.64 1035.61 389.062 981.512 463.745 923.6 503.627 865.688 543.509 782.883 552.908 699.571 585.931 616.259 618.954 545.647 696.94 423.726 701.766 301.806 706.593 52.3772 587.201-31.9511 614.89-116.279 642.579-313.892 840.971-82.2432 867.898 149.405 894.825 1121.97 937.755 1357.94 776.449 1593.91 615.144 1397.31 50.9558 1333.56-99.9346 1269.8-250.825 1035.36-123.559 975.416-128.893 915.472-134.228 981.258-134.99 976.94-134.99Z" fill="#212B38" fill-rule="evenodd"/></g></svg>